# xmcd
#
# Track frame offsets:
#	150
#	10248
#	20087
#	30916
#	43287
#	53409
#	66080
#	74126
#	88245
#	96811
#	106610
#	119057
#	126660
#	136503
#	146167
#	157793
#	166021
#	176559
#	184261
#	195387
#	207829
#	217210
#	226226
#	235994
#	246497
#	259994
#	269206
#	282414
#	292942
#	302949
#	309704
#
# Disc length: 4276 seconds
#
# Revision: 1
# Processed by: cddbd v1.5.2PL0 Copyright (c) Steve Scherf et al.
# Submitted via: audiograbber 1.83.01
#
DISCID=db10b21f
DTITLE=Various Artist - Slow.... Booogie.... Rockin'
DYEAR=1900
DGENRE=Rock and Roll
TTITLE0=Lloyd Harp and his Hoosier Rhythm Boys - Slow Boogie Rock
TTITLE1=Gaylon Christie and The Downbeats - Hootchi Cootchi Man
TTITLE2=Bink Burns - Muddy River
TTITLE3=Jack Gillen and The Internationals - Don't Treat Me This Way
TTITLE4=The Wild Childs - I'm Leaving Town Baby
TTITLE5=Freddy and Lonie - Allen's Way
TTITLE6=The Crowe Brothers - Jane
TTITLE7=Johnny McCollum and String Band - Long Lonesome Road
TTITLE8=Steve Bledsoe and The Blue Jays - Cool Steppin' Baby
TTITLE9=Joey Rand  - The Long Blond Curls
TTITLE10=Ray Salter - Truck Drivers Dream
TTITLE11=Bob Smith and The Bobcats - Honky Tonkin' Baby
TTITLE12=Sunshine Twins - Picture
TTITLE13=Don Turman and The Vibra Sonics - Rock and Roll Blues
TTITLE14=Malcom Parker and The Roadrunners - The Tears You Saved
TTITLE15=Franklin Thomason and The Hi-Rollers - Till She Returns
TTITLE16=Chance Halladay - Home Run
TTITLE17=Ebe Sneezer and his Epidemics - That's All I've Got
TTITLE18=Rebert Howell - I Don't Want To Cry Over You
TTITLE19=Tommy McConnell and his Tom Cats - Cry,Cry,Cry
TTITLE20=Dickie Vann - The Girl Next Door
TTITLE21=Franklin Thomason and The Hi-Rollers - Skip
TTITLE22=Joe Norris - Rock Out Of This World
TTITLE23=Tex Holland - Why Don't You Change Your Ways
TTITLE24=Gaylon Christie and The Downbeats - If You See My Jullie
TTITLE25=Shammi Leroy with Larry and The Nutrons - Lonely Lovin'
TTITLE26=Mike Clay - It's Money
TTITLE27=Don Turman and The Vibra Sonics - Lee Bella
TTITLE28=Rickey Marlow - She's Gone
TTITLE29=The Crowe Brothers - I Need You Baby
TTITLE30=Sunshine Twins - Borderline
EXTD=
EXTT0=
EXTT1=
EXTT2=
EXTT3=
EXTT4=
EXTT5=
EXTT6=
EXTT7=
EXTT8=
EXTT9=
EXTT10=
EXTT11=
EXTT12=
EXTT13=
EXTT14=
EXTT15=
EXTT16=
EXTT17=
EXTT18=
EXTT19=
EXTT20=
EXTT21=
EXTT22=
EXTT23=
EXTT24=
EXTT25=
EXTT26=
EXTT27=
EXTT28=
EXTT29=
EXTT30=
PLAYORDER=
